<svg width="100px" height="100px" viewBox="0 0 24 24" fill="none" xmlns="http://www.w3.org/2000/svg">
  <circle cx="12" cy="12" r="11.5" fill="white" stroke="#E0E0E0" stroke-width="1"/>
  <defs>
    <linearGradient id="circleGradient" x1="0" y1="0" x2="1" y2="1">
      <stop offset="0%" stop-color="#D16A43"/>
      <stop offset="100%" stop-color="#CE5629"/>
    </linearGradient>
  </defs>
  <circle cx="12" cy="12" r="10" fill="url(#circleGradient)" />
  <defs>
    <linearGradient id="headGradient" x1="0" y1="0" x2="1" y2="1">
      <stop offset="0%" stop-color="#FFDD44"/>
      <stop offset="100%" stop-color="#FF8800"/>
    </linearGradient>
  </defs>
  <circle cx="12" cy="7" r="5" fill="url(#headGradient)" stroke="#FF4500" stroke-width="2"/>
  <defs>
    <linearGradient id="bodyGradient" x1="0" y1="0" x2="1" y2="1">
      <stop offset="0%" stop-color="#6A5ACD"/>
      <stop offset="100%" stop-color="#483D8B"/>
    </linearGradient>
  </defs>
  <path d="M6 20C6 17 8 14 12 14C16 14 18 17 18 20" fill="url(#bodyGradient)" stroke="#4B0082" stroke-width="2" stroke-linecap="round" stroke-linejoin="round"/>
  <path d="M4 22V20C4 17.79 5.79 16 8 16H16C18.21 16 20 17.79 20 20V22" fill="#9370DB" stroke="#663399" stroke-width="2" stroke-linecap="round" stroke-linejoin="round"/>
  <rect x="9" y="16" width="6" height="4" fill="#FF6347" stroke="#FF4500" stroke-width="1"/>
  <line x1="9" y1="18" x2="15" y2="18" stroke="#FF4500" stroke-width="0.5"/>
  <circle cx="13" cy="5.5" r="1.5" fill="white" opacity="0.4"/>
</svg>